<svg xmlns="http://www.w3.org/2000/svg" xmlns:v="https://vecta.io/nano" viewBox="0 0 29.517 28.973" height="109.504" width="111.56"><path d="M12.552.798C6.061.798.798 6.06.798 12.552s5.262 11.754 11.754 11.754c1.526-.003 3.034-.307 4.443-.886a5.92 5.92 0 0 0 11.723-1.165 5.92 5.92 0 0 0-5.069-5.857 11.75 11.75 0 0 0 .657-3.846C24.306 6.06 19.044.798 12.552.798zm0 3.736a8.02 8.02 0 0 1 8.018 8.018 8.02 8.02 0 0 1-8.018 8.018 8.02 8.02 0 0 1-8.018-8.018 8.02 8.02 0 0 1 8.018-8.018zm10.247 13.877c2.123 0 3.844 1.721 3.844 3.844s-1.721 3.844-3.844 3.844-3.844-1.721-3.844-3.844 1.721-3.844 3.844-3.844z" opacity=".92" fill="#293745" fill-opacity=".922" fill-rule="evenodd" stroke="#000" stroke-width="1.597" stroke-opacity="0" paint-order="fill markers stroke"/></svg>